<mxfile host="65bd71144e">
    <diagram id="DuvHNbj01g6GoTxJxBi3" name="Page-1">
        <mxGraphModel dx="979" dy="662" grid="1" gridSize="10" guides="1" tooltips="1" connect="1" arrows="1" fold="1" page="1" pageScale="1" pageWidth="850" pageHeight="1100" math="0" shadow="0">
            <root>
                <mxCell id="0"/>
                <mxCell id="1" parent="0"/>
                <mxCell id="2" value="class Scanner" style="swimlane;whiteSpace=wrap;html=1;" parent="1" vertex="1">
                    <mxGeometry x="40" y="70" width="235" height="100" as="geometry"/>
                </mxCell>
                <mxCell id="3" value="public escaneo(objeto: Objeto)" style="text;html=1;align=center;verticalAlign=middle;resizable=0;points=[];autosize=1;strokeColor=none;fillColor=none;" parent="2" vertex="1">
                    <mxGeometry y="40" width="190" height="30" as="geometry"/>
                </mxCell>
                <mxCell id="4" value="class Objeto" style="swimlane;whiteSpace=wrap;html=1;" parent="1" vertex="1">
                    <mxGeometry x="390" y="70" width="230" height="410" as="geometry"/>
                </mxCell>
                <mxCell id="5" value="tipo: string" style="text;html=1;align=center;verticalAlign=middle;resizable=0;points=[];autosize=1;strokeColor=none;fillColor=none;" parent="4" vertex="1">
                    <mxGeometry x="5" y="40" width="80" height="30" as="geometry"/>
                </mxCell>
                <mxCell id="6" value="Material: string" style="text;html=1;align=center;verticalAlign=middle;resizable=0;points=[];autosize=1;strokeColor=none;fillColor=none;" parent="4" vertex="1">
                    <mxGeometry x="5" y="100" width="100" height="30" as="geometry"/>
                </mxCell>
                <mxCell id="9" value="Volumen: string" style="text;html=1;align=center;verticalAlign=middle;resizable=0;points=[];autosize=1;strokeColor=none;fillColor=none;" parent="4" vertex="1">
                    <mxGeometry y="130" width="110" height="30" as="geometry"/>
                </mxCell>
                <mxCell id="10" value="Contenido: array" style="text;html=1;align=center;verticalAlign=middle;resizable=0;points=[];autosize=1;strokeColor=none;fillColor=none;" parent="4" vertex="1">
                    <mxGeometry y="160" width="110" height="30" as="geometry"/>
                </mxCell>
                <mxCell id="13" value="Descripcion: string;" style="text;html=1;align=center;verticalAlign=middle;resizable=0;points=[];autosize=1;strokeColor=none;fillColor=none;" vertex="1" parent="4">
                    <mxGeometry y="70" width="130" height="30" as="geometry"/>
                </mxCell>
                <mxCell id="16" value="public getDescripcion ()" style="text;html=1;align=center;verticalAlign=middle;resizable=0;points=[];autosize=1;strokeColor=none;fillColor=none;" vertex="1" parent="4">
                    <mxGeometry y="260" width="150" height="30" as="geometry"/>
                </mxCell>
                <mxCell id="17" value="public getMaterial()" style="text;html=1;align=center;verticalAlign=middle;resizable=0;points=[];autosize=1;strokeColor=none;fillColor=none;" vertex="1" parent="4">
                    <mxGeometry y="290" width="130" height="30" as="geometry"/>
                </mxCell>
                <mxCell id="18" value="public getVolumen()" style="text;html=1;align=center;verticalAlign=middle;resizable=0;points=[];autosize=1;strokeColor=none;fillColor=none;" vertex="1" parent="4">
                    <mxGeometry y="320" width="130" height="30" as="geometry"/>
                </mxCell>
                <mxCell id="19" value="public getContenido()" style="text;html=1;align=center;verticalAlign=middle;resizable=0;points=[];autosize=1;strokeColor=none;fillColor=none;" vertex="1" parent="4">
                    <mxGeometry y="350" width="140" height="30" as="geometry"/>
                </mxCell>
                <mxCell id="15" value="public getTipo()" style="text;html=1;align=center;verticalAlign=middle;resizable=0;points=[];autosize=1;strokeColor=none;fillColor=none;" vertex="1" parent="4">
                    <mxGeometry x="5" y="230" width="110" height="30" as="geometry"/>
                </mxCell>
                <mxCell id="11" style="edgeStyle=none;html=1;" parent="1" source="2" edge="1">
                    <mxGeometry relative="1" as="geometry">
                        <mxPoint x="390" y="120" as="targetPoint"/>
                    </mxGeometry>
                </mxCell>
                <mxCell id="12" value="Escanea" style="text;html=1;align=center;verticalAlign=middle;resizable=0;points=[];autosize=1;strokeColor=none;fillColor=none;" parent="1" vertex="1">
                    <mxGeometry x="285" y="88" width="70" height="30" as="geometry"/>
                </mxCell>
                <mxCell id="14" value="" style="endArrow=none;html=1;entryX=1;entryY=0.5;entryDx=0;entryDy=0;exitX=0;exitY=0.5;exitDx=0;exitDy=0;" edge="1" parent="1" source="4" target="4">
                    <mxGeometry width="50" height="50" relative="1" as="geometry">
                        <mxPoint x="445" y="340" as="sourcePoint"/>
                        <mxPoint x="495" y="290" as="targetPoint"/>
                    </mxGeometry>
                </mxCell>
            </root>
        </mxGraphModel>
    </diagram>
</mxfile>